<?xml version="1.0" encoding="UTF-8" standalone="no"?>
<svg width="20px" height="260px" viewBox="0 0 20 260" version="1.1" xmlns="http://www.w3.org/2000/svg" xmlns:xlink="http://www.w3.org/1999/xlink">
    <!-- Generator: Sketch 39.1 (31720) - http://www.bohemiancoding.com/sketch -->
    <title>Group 2</title>
    <desc>Created with Sketch.</desc>
    <defs></defs>
    <g id="Page-1" stroke="none" stroke-width="1" fill="none" fill-rule="evenodd">
        <g id="Group-2">
            <g id="spine1">
                <g id="Layer_1">
                    <rect id="Rectangle-path" fill="#000000" x="0" y="0" width="20" height="260"></rect>
                    <g id="Group" transform="translate(7.000000, 197.000000)" fill="#010101">
                        <path d="M0.232,1.775 L0.232,0.986 L5.318,3.191 L5.318,3.837 L0.232,6.023 L0.232,5.217 L1.482,4.699 L1.482,2.285 L0.232,1.775 L0.232,1.775 Z M2.107,2.538 L2.107,4.441 L4.493,3.494 L2.107,2.538 L2.107,2.538 Z" id="Shape"></path>
                        <path d="M3.639,7.252 C3.552,7.262 3.455,7.27 3.348,7.273 C3.24,7.277 3.15,7.281 3.078,7.281 L3.078,7.302 C3.169,7.346 3.254,7.405 3.333,7.479 C3.412,7.552 3.481,7.636 3.541,7.733 C3.602,7.83 3.646,7.934 3.682,8.048 C3.715,8.163 3.733,8.283 3.733,8.407 C3.733,8.628 3.696,8.816 3.622,8.974 C3.548,9.132 3.448,9.263 3.324,9.37 C3.199,9.474 3.053,9.555 2.886,9.603 C2.718,9.654 2.538,9.679 2.347,9.679 L0.236,9.679 L0.236,9.002 L2.126,9.002 C2.266,9.002 2.397,8.991 2.522,8.97 C2.646,8.949 2.756,8.909 2.852,8.851 C2.948,8.794 3.025,8.715 3.082,8.616 C3.139,8.515 3.168,8.386 3.168,8.226 C3.168,7.958 3.066,7.741 2.862,7.57 C2.659,7.4 2.386,7.314 2.047,7.314 L0.236,7.314 L0.236,6.638 L2.909,6.638 C3,6.638 3.117,6.636 3.262,6.631 C3.406,6.626 3.533,6.619 3.643,6.61 L3.643,7.251 L3.639,7.251 L3.639,7.252 Z" id="Shape"></path>
                        <path d="M0.771,13.539 C0.566,13.41 0.408,13.232 0.299,13.012 C0.191,12.789 0.138,12.555 0.138,12.311 C0.138,12.047 0.185,11.811 0.279,11.6 C0.373,11.389 0.502,11.209 0.664,11.061 C0.826,10.913 1.018,10.797 1.238,10.715 C1.458,10.633 1.693,10.593 1.941,10.593 C2.191,10.593 2.423,10.633 2.643,10.715 C2.861,10.797 3.051,10.912 3.213,11.065 C3.376,11.215 3.503,11.395 3.594,11.606 C3.686,11.817 3.731,12.049 3.731,12.303 C3.731,12.58 3.672,12.824 3.555,13.031 C3.438,13.235 3.295,13.399 3.127,13.518 L3.127,13.533 L5.664,13.533 L5.664,14.209 L0.232,14.209 L0.232,13.556 L0.771,13.556 L0.771,13.539 L0.771,13.539 Z M1.938,11.297 C1.782,11.297 1.628,11.32 1.481,11.369 C1.333,11.416 1.202,11.488 1.085,11.584 C0.973,11.68 0.88,11.797 0.811,11.938 C0.743,12.077 0.707,12.239 0.707,12.426 C0.707,12.598 0.74,12.754 0.808,12.897 C0.875,13.039 0.963,13.16 1.078,13.259 C1.189,13.36 1.32,13.438 1.469,13.492 C1.618,13.546 1.772,13.574 1.934,13.574 C2.096,13.574 2.251,13.547 2.401,13.492 C2.549,13.437 2.679,13.359 2.795,13.259 C2.911,13.159 3.001,13.037 3.067,12.897 C3.134,12.754 3.168,12.598 3.168,12.426 C3.168,12.238 3.135,12.075 3.067,11.938 C3.001,11.797 2.91,11.68 2.795,11.584 C2.681,11.488 2.55,11.416 2.401,11.369 C2.249,11.32 2.098,11.297 1.938,11.297 L1.938,11.297 Z" id="Shape"></path>
                        <path d="M3.258,15.378 C3.402,15.373 3.529,15.366 3.639,15.357 L3.639,15.997 C3.552,16.007 3.452,16.014 3.34,16.018 C3.228,16.022 3.136,16.026 3.064,16.026 L3.064,16.047 C3.265,16.143 3.427,16.282 3.549,16.467 C3.671,16.651 3.733,16.86 3.733,17.088 C3.733,17.193 3.723,17.282 3.705,17.354 L3.08,17.327 C3.103,17.231 3.115,17.129 3.115,17.016 C3.115,16.854 3.086,16.712 3.025,16.592 C2.965,16.473 2.885,16.373 2.785,16.294 C2.685,16.215 2.568,16.156 2.436,16.118 C2.303,16.08 2.165,16.06 2.022,16.06 L0.233,16.06 L0.233,15.383 L2.907,15.383 C2.996,15.385 3.113,15.383 3.258,15.378 L3.258,15.378 Z" id="Shape"></path>
                        <path d="M1.964,21.04 L1.85,21.04 C1.811,21.04 1.774,21.037 1.735,21.033 L1.735,18.324 C1.592,18.328 1.459,18.361 1.334,18.421 C1.207,18.481 1.099,18.561 1.006,18.662 C0.912,18.762 0.84,18.879 0.787,19.01 C0.733,19.143 0.709,19.281 0.709,19.432 C0.709,19.661 0.76,19.86 0.858,20.028 C0.961,20.196 1.082,20.328 1.225,20.424 L0.844,20.9 C0.602,20.717 0.424,20.504 0.311,20.256 C0.199,20.008 0.139,19.735 0.139,19.433 C0.139,19.174 0.182,18.935 0.27,18.714 C0.356,18.494 0.477,18.306 0.631,18.148 C0.787,17.99 0.975,17.865 1.195,17.773 C1.415,17.683 1.66,17.638 1.926,17.638 C2.191,17.638 2.433,17.681 2.655,17.771 C2.878,17.859 3.068,17.982 3.226,18.142 C3.384,18.299 3.507,18.488 3.597,18.703 C3.685,18.92 3.73,19.152 3.73,19.402 C3.73,19.652 3.689,19.879 3.607,20.082 C3.527,20.287 3.41,20.459 3.255,20.602 C3.102,20.744 2.916,20.852 2.697,20.93 C2.482,21.002 2.236,21.04 1.964,21.04 L1.964,21.04 Z M2.236,20.35 C2.371,20.346 2.497,20.324 2.614,20.283 C2.731,20.243 2.834,20.182 2.92,20.104 C3.006,20.024 3.074,19.925 3.124,19.809 C3.175,19.692 3.2,19.553 3.2,19.395 C3.2,19.251 3.175,19.117 3.124,18.99 C3.074,18.862 3.006,18.754 2.92,18.66 C2.834,18.565 2.732,18.49 2.614,18.431 C2.497,18.37 2.371,18.336 2.236,18.327 L2.236,20.35 L2.236,20.35 Z" id="Shape"></path>
                        <polygon id="Shape" points="3.639 22.227 1.037 22.996 1.037 23.011 3.639 23.823 3.639 24.535 1.037 25.36 1.037 25.376 3.639 26.146 3.639 26.857 0.233 25.728 0.233 25.025 2.792 24.183 2.792 24.169 0.233 23.335 0.233 22.63 3.639 21.494"></polygon>
                        <polygon id="Shape" points="5.318 29.361 5.318 30.072 3.192 30.072 3.192 32.644 5.318 32.644 5.318 33.363 0.232 33.363 0.232 32.644 2.56 32.644 2.56 30.072 0.232 30.072 0.232 29.361"></polygon>
                        <path d="M0.232,36.963 C0.318,36.953 0.416,36.945 0.523,36.942 C0.629,36.938 0.72,36.934 0.793,36.934 L0.793,36.92 C0.611,36.834 0.457,36.69 0.33,36.484 C0.203,36.281 0.139,36.054 0.139,35.806 C0.139,35.584 0.176,35.394 0.248,35.234 C0.318,35.074 0.418,34.941 0.545,34.838 C0.672,34.734 0.82,34.658 0.988,34.609 C1.154,34.558 1.334,34.534 1.525,34.534 L3.638,34.534 L3.638,35.209 L1.755,35.209 C1.616,35.209 1.484,35.221 1.357,35.242 C1.23,35.263 1.12,35.303 1.023,35.359 C0.927,35.417 0.851,35.497 0.794,35.597 C0.737,35.697 0.708,35.826 0.708,35.986 C0.708,36.257 0.811,36.478 1.014,36.646 C1.218,36.814 1.491,36.898 1.828,36.898 L3.639,36.898 L3.639,37.574 L0.965,37.574 C0.875,37.574 0.758,37.576 0.613,37.58 C0.47,37.586 0.342,37.593 0.232,37.601 L0.232,36.963 L0.232,36.963 Z" id="Shape"></path>
                        <path d="M0.771,41.461 C0.566,41.332 0.408,41.154 0.299,40.934 C0.191,40.711 0.138,40.477 0.138,40.233 C0.138,39.969 0.185,39.733 0.279,39.522 C0.373,39.311 0.502,39.131 0.664,38.983 C0.826,38.835 1.018,38.719 1.238,38.637 C1.458,38.555 1.693,38.516 1.941,38.516 C2.191,38.516 2.423,38.555 2.643,38.637 C2.861,38.719 3.051,38.834 3.213,38.987 C3.376,39.137 3.503,39.317 3.594,39.528 C3.686,39.74 3.731,39.971 3.731,40.225 C3.731,40.502 3.672,40.746 3.555,40.953 C3.438,41.158 3.295,41.321 3.127,41.44 L3.127,41.455 L5.664,41.455 L5.664,42.131 L0.232,42.131 L0.232,41.478 L0.771,41.478 L0.771,41.461 L0.771,41.461 Z M1.938,39.219 C1.782,39.219 1.628,39.242 1.481,39.291 C1.333,39.338 1.202,39.41 1.085,39.506 C0.973,39.602 0.88,39.719 0.811,39.86 C0.743,39.999 0.707,40.162 0.707,40.348 C0.707,40.52 0.74,40.676 0.808,40.819 C0.875,40.961 0.963,41.082 1.078,41.182 C1.189,41.283 1.32,41.36 1.469,41.414 C1.618,41.468 1.772,41.496 1.934,41.496 C2.096,41.496 2.251,41.469 2.401,41.414 C2.549,41.359 2.679,41.281 2.795,41.182 C2.91,41.08 3.001,40.959 3.067,40.819 C3.134,40.676 3.168,40.52 3.168,40.348 C3.168,40.16 3.135,39.997 3.067,39.86 C3.001,39.719 2.91,39.602 2.795,39.506 C2.681,39.41 2.55,39.338 2.401,39.291 C2.249,39.242 2.098,39.219 1.938,39.219 L1.938,39.219 Z" id="Shape"></path>
                        <path d="M2.776,45.146 C2.9,45.07 3.002,44.96 3.081,44.823 C3.16,44.683 3.2,44.529 3.2,44.355 C3.2,44.279 3.191,44.203 3.175,44.126 C3.158,44.048 3.132,43.98 3.096,43.921 C3.06,43.859 3.015,43.813 2.959,43.775 C2.904,43.741 2.836,43.722 2.755,43.722 C2.61,43.722 2.504,43.786 2.436,43.915 C2.367,44.044 2.302,44.237 2.246,44.497 C2.208,44.659 2.162,44.809 2.108,44.95 C2.055,45.089 1.991,45.21 1.912,45.311 C1.833,45.414 1.737,45.495 1.629,45.553 C1.521,45.61 1.39,45.639 1.24,45.639 C1.039,45.639 0.869,45.6 0.729,45.524 C0.59,45.448 0.477,45.344 0.387,45.219 C0.299,45.091 0.235,44.946 0.199,44.782 C0.16,44.62 0.139,44.452 0.139,44.279 C0.139,44.019 0.19,43.767 0.291,43.521 C0.391,43.273 0.545,43.068 0.75,42.907 L1.16,43.388 C1.025,43.478 0.912,43.603 0.822,43.765 C0.73,43.925 0.685,44.101 0.685,44.292 C0.685,44.378 0.693,44.461 0.709,44.54 C0.726,44.618 0.754,44.69 0.791,44.755 C0.83,44.819 0.881,44.872 0.94,44.909 C1.002,44.948 1.084,44.968 1.178,44.968 C1.336,44.968 1.453,44.892 1.531,44.741 C1.606,44.59 1.678,44.368 1.746,44.076 C1.774,43.962 1.809,43.845 1.85,43.727 C1.891,43.608 1.948,43.502 2.018,43.408 C2.09,43.311 2.18,43.233 2.289,43.175 C2.395,43.114 2.529,43.085 2.687,43.085 C2.87,43.085 3.026,43.122 3.158,43.196 C3.29,43.27 3.398,43.367 3.481,43.487 C3.565,43.606 3.627,43.743 3.669,43.895 C3.709,44.048 3.73,44.207 3.73,44.371 C3.73,44.615 3.683,44.85 3.586,45.079 C3.49,45.306 3.352,45.481 3.169,45.606 L2.776,45.146 L2.776,45.146 Z" id="Shape"></path>
                        <path d="M1.941,49.945 C1.679,49.945 1.437,49.898 1.215,49.804 C0.994,49.711 0.806,49.581 0.646,49.416 C0.486,49.25 0.361,49.056 0.271,48.83 C0.183,48.604 0.138,48.363 0.138,48.104 C0.138,47.844 0.183,47.602 0.271,47.377 C0.361,47.152 0.486,46.957 0.646,46.795 C0.806,46.632 0.996,46.504 1.215,46.41 C1.434,46.316 1.679,46.269 1.941,46.269 C2.206,46.269 2.445,46.316 2.665,46.41 C2.883,46.504 3.07,46.632 3.228,46.795 C3.386,46.957 3.509,47.152 3.598,47.377 C3.688,47.602 3.731,47.844 3.731,48.104 C3.731,48.363 3.688,48.604 3.598,48.83 C3.509,49.056 3.386,49.25 3.228,49.416 C3.07,49.581 2.882,49.711 2.665,49.804 C2.445,49.898 2.206,49.945 1.941,49.945 L1.941,49.945 Z M1.938,49.242 C2.102,49.242 2.256,49.217 2.405,49.166 C2.552,49.115 2.683,49.043 2.796,48.945 C2.909,48.849 2.998,48.73 3.065,48.59 C3.132,48.447 3.166,48.285 3.166,48.104 C3.166,47.92 3.133,47.758 3.065,47.618 C2.999,47.475 2.909,47.356 2.796,47.263 C2.683,47.167 2.554,47.092 2.405,47.041 C2.258,46.991 2.102,46.966 1.938,46.966 C1.776,46.966 1.622,46.991 1.475,47.041 C1.327,47.092 1.194,47.166 1.079,47.263 C0.964,47.359 0.874,47.478 0.807,47.618 C0.741,47.76 0.706,47.922 0.706,48.104 C0.706,48.286 0.739,48.449 0.807,48.59 C0.874,48.733 0.964,48.85 1.079,48.945 C1.191,49.043 1.325,49.115 1.475,49.166 C1.621,49.217 1.775,49.242 1.938,49.242 L1.938,49.242 Z" id="Shape"></path>
                        <path d="M3.639,51.491 C3.552,51.5 3.455,51.508 3.348,51.512 C3.24,51.518 3.15,51.52 3.078,51.52 L3.078,51.541 C3.169,51.584 3.254,51.644 3.333,51.717 C3.412,51.791 3.481,51.877 3.541,51.974 C3.602,52.07 3.646,52.174 3.682,52.289 C3.715,52.403 3.733,52.522 3.733,52.647 C3.733,52.868 3.696,53.057 3.622,53.213 C3.548,53.371 3.448,53.504 3.324,53.609 C3.199,53.713 3.053,53.792 2.886,53.84 C2.718,53.892 2.538,53.916 2.347,53.916 L0.236,53.916 L0.236,53.24 L2.126,53.24 C2.266,53.24 2.397,53.229 2.522,53.208 C2.646,53.187 2.756,53.146 2.852,53.09 C2.948,53.032 3.025,52.953 3.082,52.853 C3.139,52.753 3.168,52.624 3.168,52.465 C3.168,52.196 3.066,51.978 2.862,51.808 C2.659,51.638 2.386,51.552 2.047,51.552 L0.236,51.552 L0.236,50.877 L2.909,50.877 C3,50.877 3.117,50.874 3.262,50.869 C3.406,50.864 3.533,50.856 3.643,50.848 L3.643,51.49 L3.639,51.49 L3.639,51.491 Z" id="Shape"></path>
                    </g>
                </g>
            </g>
            <text id="THE-SUCCESS-HACKER" transform="translate(9.500000, 75.500000) rotate(-270.000000) translate(-9.500000, -75.500000) " font-family="Aileron-Heavy, Aileron" font-size="12" font-weight="600" fill="#FFFFFF">
                <tspan x="-58" y="80">THE SUCCESS HACKER</tspan>
            </text>
            <text id="Fernando-Agüero" transform="translate(10.000000, 218.000000) rotate(-270.000000) translate(-10.000000, -218.000000) " font-family="Aileron-Heavy, Aileron" font-size="8" font-weight="600" fill-opacity="0.8" fill="#FFFFFF">
                <tspan x="-24" y="221">Fernando Agüero</tspan>
            </text>
        </g>
    </g>
</svg>